# xmcd
#
# Track frame offsets:
# 150
# 12387
# 21960
# 36325
# 48585
# 60382
# 73427
# 83235
# 95517
# 109820
#
# Disc length: 1618 seconds
#
#
# Revision: 0
# Processed by: cddbd v1.4PL0 Copyright (c) Steve Scherf et al.
# Submitted via: FreeRIP 2.35 
#
DISCID=8906500a
DTITLE=Merle Haggard - #1 Hits
DYEAR=1994
DGENRE=Country
TTITLE0=Okie From Muskogee
TTITLE1=The Legend Of Bonnie And Clyde
TTITLE2=The Fugitive
TTITLE3=Workin' Man Blues
TTITLE4=Turnin' Off A Memory
TTITLE5=The Fightin' Side Of Me
TTITLE6=Mama Tried
TTITLE7=Everybody's Had The Blues
TTITLE8=Branded Man
TTITLE9=Carolyn
EXTD=
EXTT0=
EXTT1=
EXTT2=
EXTT3=
EXTT4=
EXTT5=
EXTT6=
EXTT7=
EXTT8=
EXTT9=
PLAYORDER=
